<svg width="383" height="96" viewBox="0 0 383 96" fill="none" xmlns="http://www.w3.org/2000/svg">
<g clip-path="url(#clip0_242_1993)">
<path d="M127.665 3.8147e-05L127.665 64.0022L191.5 64.0022V3.8147e-05L127.665 3.8147e-05Z" fill="#FF0C4A"/>
<path d="M255.329 31.9978V96L319.165 96V31.9978L255.329 31.9978Z" fill="#032531"/>
<path d="M319.165 31.9978V96L383 96V31.9978L319.165 31.9978Z" fill="#00BBFF"/>
<path d="M255.335 96V31.9979L191.5 31.9979V96H255.335Z" fill="#00BBFF"/>
<path d="M127.671 96H63.8354L63.8354 32.0043C80.7645 32.0043 97.0004 38.7464 108.972 50.7477C120.943 62.7491 127.669 79.0267 127.671 96Z" fill="#00BBFF"/>
<path d="M51.8354 96.0001L51.8354 31.9979L-12 31.9979L-12 96.0001H51.8354Z" fill="#00BBFF"/>
</g>
<defs>
<clipPath id="clip0_242_1993">
<rect width="383" height="96" fill="white"/>
</clipPath>
</defs>
</svg>
